<mxfile host="app.diagrams.net" modified="2024-01-21T10:35:41.410Z" agent="Mozilla/5.0 (Macintosh; Intel Mac OS X 10_15_7) AppleWebKit/537.36 (KHTML, like Gecko) Chrome/120.0.0.0 Safari/537.36" version="22.1.21" etag="eaOQf4aKKrsRAISNVv4s" type="github">
  <diagram name="Страница — 1" id="70BHOpl2UOvMuAp0euyL">
    <mxGraphModel>
      <root>
        <mxCell id="0" />
        <mxCell id="1" parent="0" />
      </root>
    </mxGraphModel>
  </diagram>
</mxfile>
